<svg version="1.1" id="Layer_1" xmlns="http://www.w3.org/2000/svg" xmlns:xlink="http://www.w3.org/1999/xlink" x="0px" y="0px"
	 width="100%" viewBox="0 0 1000 1000" enable-background="new 0 0 1000 1000" xml:space="preserve">
<path fill="#000000" opacity="1.000000" stroke="none" 
	d="
M584.000000,1001.000000 
	C389.333344,1001.000000 195.166672,1001.000000 1.000000,1001.000000 
	C1.000000,667.666687 1.000000,334.333344 1.000000,1.000000 
	C334.333344,1.000000 667.666687,1.000000 1001.000000,1.000000 
	C1001.000000,334.333344 1001.000000,667.666687 1001.000000,1001.000000 
	C862.166687,1001.000000 723.333313,1001.000000 584.000000,1001.000000 
M546.273010,623.332214 
	C546.154480,623.197449 546.035950,623.062683 546.003174,622.163025 
	C546.676636,620.588135 547.350159,619.013184 548.211060,617.000000 
	C546.220276,617.000000 544.750549,617.002869 543.280884,616.999512 
	C534.862061,616.980469 534.864990,616.981201 531.513550,624.995056 
	C529.816711,629.052368 528.107056,633.104309 525.868530,638.430847 
	C523.241089,631.455994 521.203186,625.760254 518.906738,620.170654 
	C518.394104,618.922974 517.003174,617.176514 515.966064,617.141235 
	C508.380341,616.882690 500.781738,617.001892 493.000000,617.001892 
	C493.000000,623.608582 493.000000,629.590698 493.000000,635.572876 
	C493.000000,641.667175 493.000000,647.761414 493.000000,653.654663 
	C497.733673,653.654663 501.801239,653.654663 506.084351,653.654663 
	C506.084351,644.069702 506.084351,634.827881 506.084351,624.087585 
	C509.065765,631.133240 511.463837,636.834717 513.890991,642.523865 
	C515.511292,646.321960 516.197205,651.718079 519.077759,653.458008 
	C522.262085,655.381531 527.473450,653.955139 531.802063,653.966064 
	C532.110657,653.966858 532.419617,653.789673 532.924744,653.635193 
	C536.008606,646.271240 539.139954,638.794128 542.271240,631.316956 
	C541.978271,640.867004 543.853760,649.061584 553.443298,652.910950 
	C562.850891,656.687256 572.000854,656.279846 580.327209,649.204773 
	C577.797363,646.169189 575.539795,643.460266 573.307983,640.782349 
	C566.517822,645.670349 560.902832,645.332886 557.682007,640.310730 
	C565.984741,640.310730 574.396423,640.310730 583.224426,640.310730 
	C583.224426,645.028564 583.224426,649.437805 583.224426,653.656677 
	C587.730347,653.656677 591.797852,653.656677 596.000000,653.656677 
	C596.000000,648.491028 595.965637,643.667725 596.007812,638.845093 
	C596.074524,631.212708 598.924011,628.664978 606.939270,629.299866 
	C610.051941,636.726685 613.284424,644.263245 616.323730,651.876770 
	C616.791443,653.048523 616.907349,655.265442 616.241394,655.782654 
	C615.112671,656.659302 613.193604,656.929077 611.677185,656.772400 
	C610.341980,656.634460 609.103088,655.564026 607.404480,654.690979 
	C605.965515,657.352173 604.358337,659.793762 603.366211,662.463928 
	C603.044189,663.330322 604.011108,665.404114 604.933838,665.890015 
	C612.788208,670.026428 624.465271,668.866211 628.872986,659.324280 
	C632.512573,651.445129 635.658020,643.337219 639.006653,635.324158 
	C641.471741,629.425598 643.911499,623.516479 646.536072,617.193970 
	C641.674072,617.193970 637.549805,617.193970 633.245728,617.193970 
	C630.424866,624.008911 627.587158,630.864502 624.531616,638.246399 
	C621.837524,631.592957 619.525085,625.586853 616.923096,619.708801 
	C616.411255,618.552490 614.763611,617.106812 613.670959,617.132263 
	C607.885620,617.267395 602.110291,617.829834 595.950684,618.271423 
	C592.586182,614.816772 587.610535,618.021240 582.952393,616.851990 
	C582.952393,622.281616 582.952393,626.883606 582.952393,631.485596 
	C580.990967,624.838135 577.287903,619.919128 570.409729,618.013489 
	C561.432251,615.526245 553.291565,616.736755 546.273010,623.332214 
M98.736328,437.321198 
	C105.718918,445.095093 114.568314,448.381592 124.849380,447.920563 
	C128.130066,447.773407 129.191055,448.950897 129.090897,452.185059 
	C128.891098,458.636322 128.918457,465.101654 129.117279,471.553009 
	C129.163696,473.059265 130.270096,474.532867 130.783737,476.744141 
	C125.365120,487.549286 123.534157,498.762360 124.839478,510.948456 
	C127.184677,532.842468 138.180405,548.420410 157.557220,557.963806 
	C176.380341,567.234497 196.143127,567.529663 215.959015,561.468933 
	C234.017136,555.945679 246.997925,544.406616 253.671967,526.586304 
	C257.394226,516.647461 258.748688,506.348297 257.158905,495.549683 
	C255.786407,486.227020 252.735794,477.763458 247.532913,470.104645 
	C240.467865,459.704803 230.550995,452.786835 218.902939,447.270538 
	C217.827759,442.384552 216.752563,437.498566 215.722397,432.817169 
	C216.972778,432.299347 217.264786,432.129303 217.579376,432.055298 
	C227.259598,429.777771 235.937561,425.491821 243.445679,418.959198 
	C252.773666,410.843201 254.184586,398.292938 250.162247,385.485840 
	C247.031860,375.518707 239.660202,370.527985 229.757950,370.168274 
	C212.828629,369.553284 196.941711,373.895111 182.627365,383.048431 
	C176.101807,387.221252 170.056442,392.149261 163.829453,396.783356 
	C158.425797,400.804718 152.745499,401.708893 146.019669,400.220520 
	C139.305008,398.734589 132.222961,397.849396 125.382240,398.212646 
	C111.059631,398.973206 100.317200,405.210907 95.045677,419.006439 
	C82.111282,419.006439 69.176880,419.006439 55.849857,419.006439 
	C55.849857,429.615234 55.849857,439.693329 55.849857,450.157806 
	C50.043579,450.157806 44.627522,450.157806 39.282326,450.157806 
	C39.282326,460.633087 39.282326,470.705658 39.282326,481.172546 
	C44.971535,481.172546 50.386635,481.172546 56.999966,481.172546 
	C56.999966,497.963348 56.526546,514.372864 57.166637,530.738892 
	C57.592331,541.623169 63.105080,550.576660 71.998116,556.947510 
	C85.142593,566.363953 100.376076,565.680054 115.375229,564.642761 
	C120.488579,564.289124 125.444885,561.692444 130.477844,560.136475 
	C132.840042,559.406189 133.411423,558.261902 132.419205,555.736145 
	C130.664520,551.269470 129.557068,546.553040 127.943703,542.024963 
	C126.356636,537.570618 124.477638,533.220398 123.024910,529.573120 
	C118.997826,530.598877 115.642014,531.446350 112.290146,532.309082 
	C106.461227,533.809448 99.408478,530.126648 99.182213,524.256531 
	C98.630661,509.947815 99.002472,495.603485 99.002472,480.866241 
	C107.264923,480.866241 116.008820,480.866241 124.729401,480.866241 
	C124.729401,470.391357 124.729401,460.319275 124.729401,449.854004 
	C115.717964,449.854004 106.970222,449.854004 98.147652,449.854004 
	C98.147652,445.318970 98.147652,441.181030 98.736328,437.321198 
M804.443054,558.036560 
	C812.842468,553.691345 819.237976,547.168701 825.150452,538.520325 
	C825.150452,547.308899 825.150452,555.133362 825.150452,562.637146 
	C839.794861,562.637146 853.869080,562.637146 868.000000,562.637146 
	C868.000000,541.944092 867.513672,521.598083 868.170288,501.289093 
	C868.610718,487.666412 875.539490,480.427307 888.003967,479.249268 
	C901.166687,478.005249 908.199036,484.559204 908.828491,498.956696 
	C909.562927,515.756531 909.000000,532.613037 909.000000,549.445007 
	C909.000000,553.885071 909.000000,558.325073 909.000000,562.727661 
	C923.278320,562.727661 937.016602,562.727661 950.000183,562.727661 
	C950.000183,535.735535 950.340637,509.013245 949.817749,482.307831 
	C949.631836,472.810486 945.569702,464.076416 938.655029,457.214905 
	C924.934509,443.599792 907.962524,441.064880 890.013306,444.731415 
	C882.309143,446.305145 875.139526,450.495544 867.674194,453.518494 
	C867.674194,436.916107 867.674194,419.502594 867.674194,402.350647 
	C853.229858,402.350647 839.156067,402.350647 824.648926,402.350647 
	C824.648926,424.993225 824.648926,447.286346 824.648926,470.314056 
	C817.330017,458.013000 808.209473,451.409546 796.647095,447.286682 
	C782.292725,442.168243 767.494812,441.934998 752.878418,445.176239 
	C736.880676,448.723785 723.272827,456.885681 713.927246,470.706604 
	C705.128479,483.718933 702.525757,498.156891 704.902527,513.796875 
	C708.028442,534.366516 718.902649,549.250305 737.412170,557.885559 
	C759.233765,568.065979 781.644043,568.169373 804.443054,558.036560 
M271.510956,605.000000 
	C281.272430,605.000000 291.033905,605.000000 301.201721,605.000000 
	C301.201721,587.752075 301.201721,571.078430 301.201721,554.063660 
	C314.751129,565.455139 327.096954,566.561768 345.604218,564.029053 
	C359.163300,562.173401 370.101746,555.190308 378.484955,544.849915 
	C395.219971,524.207642 395.482574,486.149506 379.261292,465.257202 
	C365.340851,447.328339 340.774200,440.240448 321.003204,444.476807 
	C312.783813,446.238007 305.180054,449.327698 298.730408,456.743073 
	C298.730408,451.983643 298.730408,448.567200 298.730408,445.309937 
	C285.304718,445.309937 272.235718,445.309937 259.292114,445.309937 
	C259.292114,498.677612 259.292114,551.734924 259.292114,605.000000 
	C263.227386,605.000000 266.872253,605.000000 271.510956,605.000000 
M620.000000,547.496704 
	C620.000000,531.834595 619.508911,516.152893 620.133240,500.515656 
	C620.805542,483.676392 636.355164,475.305634 650.217407,480.707733 
	C658.724243,484.022858 660.718994,491.484833 660.870361,499.211304 
	C661.258606,519.031372 660.995239,538.864075 661.010071,558.691711 
	C661.011108,560.111023 661.155640,561.530273 661.216675,562.643494 
	C675.452698,562.643494 689.191528,562.643494 703.000000,562.643494 
	C703.000000,540.129944 703.144897,517.971252 702.908264,495.816589 
	C702.840759,489.493225 702.277710,483.042236 700.874939,476.893158 
	C697.750183,463.195648 689.970337,453.201599 676.510864,447.742310 
	C667.429138,444.058685 658.356140,443.089966 648.630554,443.816315 
	C639.468140,444.500580 631.355530,447.305573 623.725708,452.047668 
	C621.869385,453.201416 620.180359,454.624298 617.741333,456.418488 
	C617.741333,452.033051 617.741333,448.609253 617.741333,445.295074 
	C604.004578,445.295074 590.601196,445.295074 577.287598,445.295074 
	C577.287598,484.654999 577.287598,523.719238 577.287598,562.712341 
	C591.646851,562.712341 605.716736,562.712341 620.000000,562.712341 
	C620.000000,557.782715 620.000000,553.138977 620.000000,547.496704 
M526.000000,453.544067 
	C526.000000,470.370392 526.052490,487.197052 525.954285,504.022797 
	C525.935364,507.256439 525.732056,510.593506 524.916931,513.699951 
	C521.306030,527.460510 507.094269,532.936035 495.221863,526.959167 
	C487.985840,523.316345 486.174438,516.109375 486.083923,508.785858 
	C485.838898,488.963715 486.004791,469.136566 485.989960,449.311401 
	C485.988892,447.891937 485.844299,446.472595 485.782898,445.353363 
	C471.551208,445.353363 457.813660,445.353363 444.999908,445.353363 
	C444.999908,472.439545 444.639832,499.176514 445.193329,525.894531 
	C445.389679,535.373474 449.979431,543.708191 456.394592,551.001953 
	C470.151001,566.642334 499.144257,568.768188 515.637939,560.688232 
	C519.877258,558.611389 523.803040,555.894470 528.300964,553.216797 
	C528.300964,556.699890 528.300964,559.786255 528.300964,562.678650 
	C541.719849,562.678650 554.788452,562.678650 567.691406,562.678650 
	C567.691406,523.295715 567.691406,484.234772 567.691406,445.307129 
	C553.645142,445.307129 539.909302,445.307129 526.000000,445.307129 
	C526.000000,447.928864 526.000000,450.244690 526.000000,453.544067 
M393.000000,447.500000 
	C393.000000,485.925690 393.000000,524.351379 393.000000,562.713501 
	C407.307892,562.713501 421.046112,562.713501 434.716125,562.713501 
	C434.716125,509.025848 434.716125,455.625183 434.716125,402.286499 
	C420.692169,402.286499 406.953949,402.286499 393.000000,402.286499 
	C393.000000,417.214661 393.000000,431.857330 393.000000,447.500000 
M469.159241,652.983643 
	C471.133728,651.612549 473.108215,650.241455 474.877563,649.012756 
	C472.231781,646.162292 469.865326,643.612732 467.546021,641.113953 
	C459.975006,645.476501 455.360443,645.275208 452.016327,640.292114 
	C460.380157,640.292114 468.548737,640.292114 477.144501,640.292114 
	C477.144501,644.944702 477.144501,649.359070 477.144501,653.700195 
	C481.978882,653.700195 486.379639,653.700195 490.965393,653.700195 
	C490.965393,638.461792 490.965393,623.521667 490.965393,608.217224 
	C493.979126,613.821228 497.661713,615.928833 502.969635,613.680664 
	C505.266052,612.708008 507.863007,608.709534 507.581848,606.422546 
	C507.292847,604.071228 503.984161,600.997314 501.419586,600.267090 
	C497.203857,599.066711 492.909210,600.214172 491.790771,604.739807 
	C486.712128,604.739807 481.965973,604.739807 476.970581,604.739807 
	C476.970581,612.907532 476.970581,621.166504 476.970581,630.266968 
	C472.494629,619.539124 464.512634,616.244385 454.397827,617.027771 
	C445.825684,617.691528 440.284058,622.416809 436.986938,630.418274 
	C436.986938,621.744385 436.986938,613.070435 436.986938,604.221741 
	C432.514374,604.221741 428.448303,604.221741 423.981506,604.221741 
	C423.981506,609.451050 423.981506,614.476440 423.981506,619.725891 
	C415.871124,614.793945 403.646942,616.283569 398.658173,624.757996 
	C395.064911,630.861938 394.968262,642.583069 399.017822,647.491516 
	C405.298096,655.103882 413.349152,657.131409 422.158661,653.306213 
	C422.726013,653.059753 423.302185,652.399780 423.791107,652.474792 
	C428.042999,653.126770 432.275848,653.902771 437.054993,654.736206 
	C437.054993,649.211243 437.054993,644.889709 437.054993,640.568176 
	C439.961304,652.148254 454.994720,658.726440 469.159241,652.983643 
z"/>
<path fill="#FFFFFF" opacity="1.000000" stroke="none" 
	d="
M804.181152,558.318848 
	C781.644043,568.169373 759.233765,568.065979 737.412170,557.885559 
	C718.902649,549.250305 708.028442,534.366516 704.902527,513.796875 
	C702.525757,498.156891 705.128479,483.718933 713.927246,470.706604 
	C723.272827,456.885681 736.880676,448.723785 752.878418,445.176239 
	C767.494812,441.934998 782.292725,442.168243 796.647095,447.286682 
	C808.209473,451.409546 817.330017,458.013000 824.648926,470.314056 
	C824.648926,447.286346 824.648926,424.993225 824.648926,402.350647 
	C839.156067,402.350647 853.229858,402.350647 867.674194,402.350647 
	C867.674194,419.502594 867.674194,436.916107 867.674194,453.518494 
	C875.139526,450.495544 882.309143,446.305145 890.013306,444.731415 
	C907.962524,441.064880 924.934509,443.599792 938.655029,457.214905 
	C945.569702,464.076416 949.631836,472.810486 949.817749,482.307831 
	C950.340637,509.013245 950.000183,535.735535 950.000183,562.727661 
	C937.016602,562.727661 923.278320,562.727661 909.000000,562.727661 
	C909.000000,558.325073 909.000000,553.885071 909.000000,549.445007 
	C909.000000,532.613037 909.562927,515.756531 908.828491,498.956696 
	C908.199036,484.559204 901.166687,478.005249 888.003967,479.249268 
	C875.539490,480.427307 868.610718,487.666412 868.170288,501.289093 
	C867.513672,521.598083 868.000000,541.944092 868.000000,562.637146 
	C853.869080,562.637146 839.794861,562.637146 825.150452,562.637146 
	C825.150452,555.133362 825.150452,547.308899 825.150452,538.520325 
	C819.237976,547.168701 812.842468,553.691345 804.181152,558.318848 
M825.000000,513.497742 
	C825.000000,501.738434 825.000000,489.979095 825.000000,477.598785 
	C814.488831,483.032501 804.584290,488.152618 794.595276,493.316437 
	C790.305786,483.444611 783.177429,477.929321 772.973999,477.066010 
	C762.681946,476.195282 755.020447,481.090393 749.981201,489.697571 
	C745.347412,497.612091 745.983887,506.486786 748.172424,514.846130 
	C750.965515,525.514587 762.808655,533.711243 775.838135,531.198486 
	C785.217712,529.389465 790.450134,523.378540 794.789490,515.917236 
	C804.948975,520.973816 814.854614,525.903992 825.000000,530.953491 
	C825.000000,525.153992 825.000000,519.825195 825.000000,513.497742 
z"/>
<path fill="#FFFFFF" opacity="1.000000" stroke="none" 
	d="
M271.014038,605.000000 
	C266.872253,605.000000 263.227386,605.000000 259.292114,605.000000 
	C259.292114,551.734924 259.292114,498.677612 259.292114,445.309937 
	C272.235718,445.309937 285.304718,445.309937 298.730408,445.309937 
	C298.730408,448.567200 298.730408,451.983643 298.730408,456.743073 
	C305.180054,449.327698 312.783813,446.238007 321.003204,444.476807 
	C340.774200,440.240448 365.340851,447.328339 379.261292,465.257202 
	C395.482574,486.149506 395.219971,524.207642 378.484955,544.849915 
	C370.101746,555.190308 359.163300,562.173401 345.604218,564.029053 
	C327.096954,566.561768 314.751129,565.455139 301.201721,554.063660 
	C301.201721,571.078430 301.201721,587.752075 301.201721,605.000000 
	C291.033905,605.000000 281.272430,605.000000 271.014038,605.000000 
M301.000000,508.273804 
	C301.338379,510.499054 301.315765,512.855896 302.071564,514.928955 
	C308.914307,533.698242 330.095215,537.112793 342.192535,524.246826 
	C351.213318,514.652832 351.282837,494.832397 342.462677,484.898468 
	C332.551422,473.735657 315.004974,474.696045 306.179749,486.121918 
	C301.126068,492.664886 300.867401,499.817841 301.000000,508.273804 
z"/>
<path fill="#FFFFFF" opacity="1.000000" stroke="none" 
	d="
M620.000000,547.995972 
	C620.000000,553.138977 620.000000,557.782715 620.000000,562.712341 
	C605.716736,562.712341 591.646851,562.712341 577.287598,562.712341 
	C577.287598,523.719238 577.287598,484.654999 577.287598,445.295074 
	C590.601196,445.295074 604.004578,445.295074 617.741333,445.295074 
	C617.741333,448.609253 617.741333,452.033051 617.741333,456.418488 
	C620.180359,454.624298 621.869385,453.201416 623.725708,452.047668 
	C631.355530,447.305573 639.468140,444.500580 648.630554,443.816315 
	C658.356140,443.089966 667.429138,444.058685 676.510864,447.742310 
	C689.970337,453.201599 697.750183,463.195648 700.874939,476.893158 
	C702.277710,483.042236 702.840759,489.493225 702.908264,495.816589 
	C703.144897,517.971252 703.000000,540.129944 703.000000,562.643494 
	C689.191528,562.643494 675.452698,562.643494 661.216675,562.643494 
	C661.155640,561.530273 661.011108,560.111023 661.010071,558.691711 
	C660.995239,538.864075 661.258606,519.031372 660.870361,499.211304 
	C660.718994,491.484833 658.724243,484.022858 650.217407,480.707733 
	C636.355164,475.305634 620.805542,483.676392 620.133240,500.515656 
	C619.508911,516.152893 620.000000,531.834595 620.000000,547.995972 
z"/>
<path fill="#FFFFFF" opacity="1.000000" stroke="none" 
	d="
M526.000000,453.052277 
	C526.000000,450.244690 526.000000,447.928864 526.000000,445.307129 
	C539.909302,445.307129 553.645142,445.307129 567.691406,445.307129 
	C567.691406,484.234772 567.691406,523.295715 567.691406,562.678650 
	C554.788452,562.678650 541.719849,562.678650 528.300964,562.678650 
	C528.300964,559.786255 528.300964,556.699890 528.300964,553.216797 
	C523.803040,555.894470 519.877258,558.611389 515.637939,560.688232 
	C499.144257,568.768188 470.151001,566.642334 456.394592,551.001953 
	C449.979431,543.708191 445.389679,535.373474 445.193329,525.894531 
	C444.639832,499.176514 444.999908,472.439545 444.999908,445.353363 
	C457.813660,445.353363 471.551208,445.353363 485.782898,445.353363 
	C485.844299,446.472595 485.988892,447.891937 485.989960,449.311401 
	C486.004791,469.136566 485.838898,488.963715 486.083923,508.785858 
	C486.174438,516.109375 487.985840,523.316345 495.221863,526.959167 
	C507.094269,532.936035 521.306030,527.460510 524.916931,513.699951 
	C525.732056,510.593506 525.935364,507.256439 525.954285,504.022797 
	C526.052490,487.197052 526.000000,470.370392 526.000000,453.052277 
z"/>
<path fill="#FFFFFF" opacity="1.000000" stroke="none" 
	d="
M219.015503,448.064697 
	C230.550995,452.786835 240.467865,459.704803 247.532913,470.104645 
	C252.735794,477.763458 255.786407,486.227020 257.158905,495.549683 
	C258.748688,506.348297 257.394226,516.647461 253.671967,526.586304 
	C246.997925,544.406616 234.017136,555.945679 215.959015,561.468933 
	C196.143127,567.529663 176.380341,567.234497 157.557220,557.963806 
	C138.180405,548.420410 127.184677,532.842468 124.839478,510.948456 
	C123.534157,498.762360 125.365120,487.549286 130.980103,476.062500 
	C132.876175,474.102264 134.425690,472.520782 136.298889,471.592163 
	C154.156494,462.739594 173.164169,457.868500 192.923508,455.997498 
	C201.884262,455.148987 210.916122,455.051331 219.986237,454.609619 
	C219.641113,452.282715 219.328308,450.173706 219.015503,448.064697 
M213.639847,514.882568 
	C214.093079,510.013214 215.085724,505.121307 214.883087,500.279419 
	C214.504257,491.226105 209.970001,484.186249 202.144012,479.746582 
	C194.362183,475.331940 185.919434,475.580200 178.611313,480.285217 
	C162.193390,490.855164 163.634888,517.869446 177.033035,527.409180 
	C192.440475,538.379578 210.694077,527.876953 213.639847,514.882568 
z"/>
<path fill="#FFFFFF" opacity="1.000000" stroke="none" 
	d="
M98.147652,437.043091 
	C98.147652,441.181030 98.147652,445.318970 98.147652,449.854004 
	C106.970222,449.854004 115.717964,449.854004 124.729401,449.854004 
	C124.729401,460.319275 124.729401,470.391357 124.729401,480.866241 
	C116.008820,480.866241 107.264923,480.866241 99.002472,480.866241 
	C99.002472,495.603485 98.630661,509.947815 99.182213,524.256531 
	C99.408478,530.126648 106.461227,533.809448 112.290146,532.309082 
	C115.642014,531.446350 118.997826,530.598877 123.024910,529.573120 
	C124.477638,533.220398 126.356636,537.570618 127.943703,542.024963 
	C129.557068,546.553040 130.664520,551.269470 132.419205,555.736145 
	C133.411423,558.261902 132.840042,559.406189 130.477844,560.136475 
	C125.444885,561.692444 120.488579,564.289124 115.375229,564.642761 
	C100.376076,565.680054 85.142593,566.363953 71.998116,556.947510 
	C63.105080,550.576660 57.592331,541.623169 57.166637,530.738892 
	C56.526546,514.372864 56.999966,497.963348 56.999966,481.172546 
	C50.386635,481.172546 44.971535,481.172546 39.282326,481.172546 
	C39.282326,470.705658 39.282326,460.633087 39.282326,450.157806 
	C44.627522,450.157806 50.043579,450.157806 55.849857,450.157806 
	C55.849857,439.693329 55.849857,429.615234 55.849857,419.006439 
	C69.176880,419.006439 82.111282,419.006439 95.506516,419.455566 
	C93.806938,425.984802 95.892540,431.524719 98.147652,437.043091 
z"/>
<path fill="#FFFFFF" opacity="1.000000" stroke="none" 
	d="
M393.000000,447.000000 
	C393.000000,431.857330 393.000000,417.214661 393.000000,402.286499 
	C406.953949,402.286499 420.692169,402.286499 434.716125,402.286499 
	C434.716125,455.625183 434.716125,509.025848 434.716125,562.713501 
	C421.046112,562.713501 407.307892,562.713501 393.000000,562.713501 
	C393.000000,524.351379 393.000000,485.925690 393.000000,447.000000 
z"/>
<path fill="#D9D9D9" opacity="1.000000" stroke="none" 
	d="
M546.586792,623.769897 
	C553.291565,616.736755 561.432251,615.526245 570.409729,618.013489 
	C577.287903,619.919128 580.990967,624.838135 582.952393,631.485596 
	C582.952393,626.883606 582.952393,622.281616 582.952393,616.851990 
	C587.610535,618.021240 592.586182,614.816772 595.950684,618.271423 
	C602.110291,617.829834 607.885620,617.267395 613.670959,617.132263 
	C614.763611,617.106812 616.411255,618.552490 616.923096,619.708801 
	C619.525085,625.586853 621.837524,631.592957 624.531616,638.246399 
	C627.587158,630.864502 630.424866,624.008911 633.245728,617.193970 
	C637.549805,617.193970 641.674072,617.193970 646.536072,617.193970 
	C643.911499,623.516479 641.471741,629.425598 639.006653,635.324158 
	C635.658020,643.337219 632.512573,651.445129 628.872986,659.324280 
	C624.465271,668.866211 612.788208,670.026428 604.933838,665.890015 
	C604.011108,665.404114 603.044189,663.330322 603.366211,662.463928 
	C604.358337,659.793762 605.965515,657.352173 607.404480,654.690979 
	C609.103088,655.564026 610.341980,656.634460 611.677185,656.772400 
	C613.193604,656.929077 615.112671,656.659302 616.241394,655.782654 
	C616.907349,655.265442 616.791443,653.048523 616.323730,651.876770 
	C613.284424,644.263245 610.051941,636.726685 606.939270,629.299866 
	C598.924011,628.664978 596.074524,631.212708 596.007812,638.845093 
	C595.965637,643.667725 596.000000,648.491028 596.000000,653.656677 
	C591.797852,653.656677 587.730347,653.656677 583.224426,653.656677 
	C583.224426,649.437805 583.224426,645.028564 583.224426,640.310730 
	C574.396423,640.310730 565.984741,640.310730 557.682007,640.310730 
	C560.902832,645.332886 566.517822,645.670349 573.307983,640.782349 
	C575.539795,643.460266 577.797363,646.169189 580.327209,649.204773 
	C572.000854,656.279846 562.850891,656.687256 553.443298,652.910950 
	C543.853760,649.061584 541.978271,640.867004 542.271240,631.316956 
	C539.139954,638.794128 536.008606,646.271240 532.924744,653.635193 
	C532.419617,653.789673 532.110657,653.966858 531.802063,653.966064 
	C527.473450,653.955139 522.262085,655.381531 519.077759,653.458008 
	C516.197205,651.718079 515.511292,646.321960 513.890991,642.523865 
	C511.463837,636.834717 509.065765,631.133240 506.084351,624.087585 
	C506.084351,634.827881 506.084351,644.069702 506.084351,653.654663 
	C501.801239,653.654663 497.733673,653.654663 493.000000,653.654663 
	C493.000000,647.761414 493.000000,641.667175 493.000000,635.572876 
	C493.000000,629.590698 493.000000,623.608582 493.000000,617.001892 
	C500.781738,617.001892 508.380341,616.882690 515.966064,617.141235 
	C517.003174,617.176514 518.394104,618.922974 518.906738,620.170654 
	C521.203186,625.760254 523.241089,631.455994 525.868530,638.430847 
	C528.107056,633.104309 529.816711,629.052368 531.513550,624.995056 
	C534.864990,616.981201 534.862061,616.980469 543.280884,616.999512 
	C544.750549,617.002869 546.220276,617.000000 548.211060,617.000000 
	C547.350159,619.013184 546.676636,620.588135 545.682190,622.647339 
	C545.328857,623.667603 545.296509,624.203613 545.264160,624.739563 
	C545.705017,624.416382 546.145935,624.093140 546.586792,623.769897 
M556.559814,631.910706 
	C560.875610,631.910706 565.191406,631.910706 569.818481,631.910706 
	C565.299194,625.147156 561.030029,625.045898 556.559814,631.910706 
z"/>
<path fill="#D9D9D9" opacity="1.000000" stroke="none" 
	d="
M468.769287,653.055481 
	C454.994720,658.726440 439.961304,652.148254 437.054993,640.568176 
	C437.054993,644.889709 437.054993,649.211243 437.054993,654.736206 
	C432.275848,653.902771 428.042999,653.126770 423.791107,652.474792 
	C423.302185,652.399780 422.726013,653.059753 422.158661,653.306213 
	C413.349152,657.131409 405.298096,655.103882 399.017822,647.491516 
	C394.968262,642.583069 395.064911,630.861938 398.658173,624.757996 
	C403.646942,616.283569 415.871124,614.793945 423.981506,619.725891 
	C423.981506,614.476440 423.981506,609.451050 423.981506,604.221741 
	C428.448303,604.221741 432.514374,604.221741 436.986938,604.221741 
	C436.986938,613.070435 436.986938,621.744385 436.986938,630.418274 
	C440.284058,622.416809 445.825684,617.691528 454.397827,617.027771 
	C464.512634,616.244385 472.494629,619.539124 476.970581,630.266968 
	C476.970581,621.166504 476.970581,612.907532 476.970581,604.739807 
	C481.965973,604.739807 486.712128,604.739807 491.790771,604.739807 
	C492.909210,600.214172 497.203857,599.066711 501.419586,600.267090 
	C503.984161,600.997314 507.292847,604.071228 507.581848,606.422546 
	C507.863007,608.709534 505.266052,612.708008 502.969635,613.680664 
	C497.661713,615.928833 493.979126,613.821228 490.965393,608.217224 
	C490.965393,623.521667 490.965393,638.461792 490.965393,653.700195 
	C486.379639,653.700195 481.978882,653.700195 477.144501,653.700195 
	C477.144501,649.359070 477.144501,644.944702 477.144501,640.292114 
	C468.548737,640.292114 460.380157,640.292114 452.016327,640.292114 
	C455.360443,645.275208 459.975006,645.476501 467.546021,641.113953 
	C469.865326,643.612732 472.231781,646.162292 474.877563,649.012756 
	C473.108215,650.241455 471.133728,651.612549 468.769287,653.055481 
M417.351013,628.000122 
	C415.953796,628.325317 414.449402,628.421936 413.179169,629.017883 
	C409.151917,630.907166 409.483246,634.849365 410.221405,637.987610 
	C410.748749,640.229675 412.996796,643.046509 415.058685,643.663696 
	C416.993195,644.242676 420.326721,642.902954 421.929626,641.295593 
	C426.024139,637.189697 423.997772,630.798218 417.351013,628.000122 
M453.057098,628.413513 
	C452.324188,629.365784 451.591248,630.318115 450.661621,631.526001 
	C455.498169,631.526001 459.714966,631.526001 464.852386,631.526001 
	C461.267853,627.505188 458.127289,625.573792 453.057098,628.413513 
z"/>
<path fill="#262C2E" opacity="1.000000" stroke="none" 
	d="
M98.441986,437.182129 
	C95.892540,431.524719 93.806938,425.984802 95.971962,419.498444 
	C100.317200,405.210907 111.059631,398.973206 125.382240,398.212646 
	C132.222961,397.849396 139.305008,398.734589 146.019669,400.220520 
	C152.745499,401.708893 158.425797,400.804718 163.829453,396.783356 
	C170.056442,392.149261 176.101807,387.221252 182.627365,383.048431 
	C196.941711,373.895111 212.828629,369.553284 229.757950,370.168274 
	C239.660202,370.527985 247.031860,375.518707 250.162247,385.485840 
	C254.184586,398.292938 252.773666,410.843201 243.445679,418.959198 
	C235.937561,425.491821 227.259598,429.777771 217.579376,432.055298 
	C217.264786,432.129303 216.972778,432.299347 215.722397,432.817169 
	C216.752563,437.498566 217.827759,442.384552 218.959229,447.667603 
	C219.328308,450.173706 219.641113,452.282715 219.986237,454.609619 
	C210.916122,455.051331 201.884262,455.148987 192.923508,455.997498 
	C173.164169,457.868500 154.156494,462.739594 136.298889,471.592163 
	C134.425690,472.520782 132.876175,474.102264 131.032639,475.701172 
	C130.270096,474.532867 129.163696,473.059265 129.117279,471.553009 
	C128.918457,465.101654 128.891098,458.636322 129.090897,452.185059 
	C129.191055,448.950897 128.130066,447.773407 124.849380,447.920563 
	C114.568314,448.381592 105.718918,445.095093 98.441986,437.182129 
M246.546097,407.685791 
	C247.005173,401.753204 248.126022,395.780487 247.769363,389.897369 
	C247.224258,380.906250 241.046143,374.619812 232.102280,373.980103 
	C225.714508,373.523193 219.158447,373.975800 212.796204,374.868652 
	C191.351196,377.878357 175.771179,391.979004 158.699921,404.159210 
	C164.210892,404.159210 169.344696,404.159210 174.478485,404.159210 
	C171.491531,405.889252 168.254959,407.353943 165.213577,407.023285 
	C158.505157,406.293976 151.805344,405.006927 145.265244,403.316132 
	C134.538834,400.542969 123.962387,399.622772 113.497566,404.055359 
	C102.520477,408.704956 95.958298,422.729218 99.661888,432.323029 
	C103.065483,441.139740 119.925529,447.818237 130.036469,443.317047 
	C128.824112,441.276215 127.640434,439.283661 126.436562,437.257111 
	C131.527679,438.865356 132.899719,441.356750 132.731216,446.751770 
	C132.491425,454.429718 132.670258,462.120697 132.670258,470.083008 
	C159.247513,457.038116 187.336792,451.520966 217.008804,452.461853 
	C214.739761,442.915955 212.642471,434.092499 210.533295,425.219147 
	C207.156326,425.813538 203.763824,426.642273 200.324554,426.952606 
	C196.688354,427.280731 192.980774,426.864197 189.355606,427.251923 
	C186.866135,427.518158 184.131638,428.086121 182.079544,429.408356 
	C172.249954,435.742035 162.613831,437.536896 152.680634,433.804474 
	C155.789474,433.804474 157.909668,434.258057 159.740204,433.722198 
	C166.036789,431.878998 172.599167,430.377106 178.304489,427.330017 
	C180.985733,425.898041 183.214523,424.854553 186.163849,424.779114 
	C198.778793,424.456573 210.975098,422.461853 221.869919,415.467010 
	C222.388885,415.133850 223.223999,415.293091 223.911896,415.223022 
	C224.136047,415.616058 224.360199,416.009064 224.584351,416.402100 
	C220.849289,419.225830 217.114212,422.049591 213.088226,425.093262 
	C213.525345,426.477539 214.041946,428.113525 214.592499,429.857025 
	C227.918243,426.294891 240.082565,421.797729 246.546097,407.685791 
z"/>
<path fill="#000000" opacity="1.000000" stroke="none" 
	d="
M825.000000,513.997070 
	C825.000000,519.825195 825.000000,525.153992 825.000000,530.953491 
	C814.854614,525.903992 804.948975,520.973816 794.789490,515.917236 
	C790.450134,523.378540 785.217712,529.389465 775.838135,531.198486 
	C762.808655,533.711243 750.965515,525.514587 748.172424,514.846130 
	C745.983887,506.486786 745.347412,497.612091 749.981201,489.697571 
	C755.020447,481.090393 762.681946,476.195282 772.973999,477.066010 
	C783.177429,477.929321 790.305786,483.444611 794.595276,493.316437 
	C804.584290,488.152618 814.488831,483.032501 825.000000,477.598785 
	C825.000000,489.979095 825.000000,501.738434 825.000000,513.997070 
z"/>
<path fill="#000000" opacity="1.000000" stroke="none" 
	d="
M301.000000,507.804382 
	C300.867401,499.817841 301.126068,492.664886 306.179749,486.121918 
	C315.004974,474.696045 332.551422,473.735657 342.462677,484.898468 
	C351.282837,494.832397 351.213318,514.652832 342.192535,524.246826 
	C330.095215,537.112793 308.914307,533.698242 302.071564,514.928955 
	C301.315765,512.855896 301.338379,510.499054 301.000000,507.804382 
z"/>
<path fill="#000000" opacity="1.000000" stroke="none" 
	d="
M213.348801,515.183105 
	C210.694077,527.876953 192.440475,538.379578 177.033035,527.409180 
	C163.634888,517.869446 162.193390,490.855164 178.611313,480.285217 
	C185.919434,475.580200 194.362183,475.331940 202.144012,479.746582 
	C209.970001,484.186249 214.504257,491.226105 214.883087,500.279419 
	C215.085724,505.121307 214.093079,510.013214 213.348801,515.183105 
z"/>
<path fill="#000000" opacity="1.000000" stroke="none" 
	d="
M556.511475,631.506226 
	C561.030029,625.045898 565.299194,625.147156 569.818481,631.910706 
	C565.191406,631.910706 560.875610,631.910706 556.511475,631.506226 
z"/>
<path fill="#000000" opacity="1.000000" stroke="none" 
	d="
M546.429932,623.551025 
	C546.145935,624.093140 545.705017,624.416382 545.264160,624.739563 
	C545.296509,624.203613 545.328857,623.667603 545.639282,623.029785 
	C546.035950,623.062683 546.154480,623.197449 546.429932,623.551025 
z"/>
<path fill="#000000" opacity="1.000000" stroke="none" 
	d="
M417.761169,628.001099 
	C423.997772,630.798218 426.024139,637.189697 421.929626,641.295593 
	C420.326721,642.902954 416.993195,644.242676 415.058685,643.663696 
	C412.996796,643.046509 410.748749,640.229675 410.221405,637.987610 
	C409.483246,634.849365 409.151917,630.907166 413.179169,629.017883 
	C414.449402,628.421936 415.953796,628.325317 417.761169,628.001099 
z"/>
<path fill="#000000" opacity="1.000000" stroke="none" 
	d="
M453.365234,628.147095 
	C458.127289,625.573792 461.267853,627.505188 464.852386,631.526001 
	C459.714966,631.526001 455.498169,631.526001 450.661621,631.526001 
	C451.591248,630.318115 452.324188,629.365784 453.365234,628.147095 
z"/>
<path fill="#FDFDFD" opacity="1.000000" stroke="none" 
	d="
M246.369354,408.039062 
	C240.082565,421.797729 227.918243,426.294891 214.592499,429.857025 
	C214.041946,428.113525 213.525345,426.477539 213.088226,425.093262 
	C217.114212,422.049591 220.849289,419.225830 224.584351,416.402100 
	C224.360199,416.009064 224.136047,415.616058 223.911896,415.223022 
	C223.223999,415.293091 222.388885,415.133850 221.869919,415.467010 
	C210.975098,422.461853 198.778793,424.456573 186.163849,424.779114 
	C183.214523,424.854553 180.985733,425.898041 178.304489,427.330017 
	C172.599167,430.377106 166.036789,431.878998 159.740204,433.722198 
	C157.909668,434.258057 155.789474,433.804474 152.680634,433.804474 
	C162.613831,437.536896 172.249954,435.742035 182.079544,429.408356 
	C184.131638,428.086121 186.866135,427.518158 189.355606,427.251923 
	C192.980774,426.864197 196.688354,427.280731 200.324554,426.952606 
	C203.763824,426.642273 207.156326,425.813538 210.533295,425.219147 
	C212.642471,434.092499 214.739761,442.915955 217.008804,452.461853 
	C187.336792,451.520966 159.247513,457.038116 132.670258,470.083008 
	C132.670258,462.120697 132.491425,454.429718 132.731216,446.751770 
	C132.899719,441.356750 131.527679,438.865356 126.436562,437.257111 
	C127.640434,439.283661 128.824112,441.276215 130.036469,443.317047 
	C119.925529,447.818237 103.065483,441.139740 99.661888,432.323029 
	C95.958298,422.729218 102.520477,408.704956 113.497566,404.055359 
	C123.962387,399.622772 134.538834,400.542969 145.265244,403.316132 
	C151.805344,405.006927 158.505157,406.293976 165.213577,407.023285 
	C168.254959,407.353943 171.491531,405.889252 174.478485,404.159210 
	C169.344696,404.159210 164.210892,404.159210 158.699921,404.159210 
	C175.771179,391.979004 191.351196,377.878357 212.796204,374.868652 
	C219.158447,373.975800 225.714508,373.523193 232.102280,373.980103 
	C241.046143,374.619812 247.224258,380.906250 247.769363,389.897369 
	C248.126022,395.780487 247.005173,401.753204 246.369354,408.039062 
M176.432556,403.487061 
	C176.432556,403.487061 176.485504,403.509796 176.432556,403.487061 
z"/>
<path fill="#262C2E" opacity="1.000000" stroke="none" 
	d="
M176.459030,403.498413 
	C176.485504,403.509796 176.432556,403.487061 176.459030,403.498413 
z"/>
</svg>